<svg width="24" height="24" viewBox="0 0 24 24" fill="none" xmlns="http://www.w3.org/2000/svg">
<path d="M22.56 12.2499C22.56 11.4699 22.49 10.7199 22.36 9.99991H12V14.2599H17.92C17.66 15.6299 16.88 16.7899 15.71 17.5699V20.3399H19.28C21.36 18.4199 22.56 15.5999 22.56 12.2499Z" fill="#4285F4"/>
<path d="M11.9997 23C14.9697 23 17.4597 22.02 19.2797 20.34L15.7097 17.57C14.7297 18.23 13.4797 18.63 11.9997 18.63C9.13969 18.63 6.70969 16.7 5.83969 14.1H2.17969V16.94C3.98969 20.53 7.69969 23 11.9997 23Z" fill="#34A853"/>
<path d="M5.84 14.0898C5.62 13.4298 5.49 12.7298 5.49 11.9998C5.49 11.2698 5.62 10.5698 5.84 9.90982V7.06982H2.18C1.43 8.54982 1 10.2198 1 11.9998C1 13.7798 1.43 15.4498 2.18 16.9298L5.03 14.7098L5.84 14.0898Z" fill="#FBBC05"/>
<path d="M11.9997 5.37991C13.6197 5.37991 15.0597 5.93991 16.2097 7.01991L19.3597 3.86991C17.4497 2.08991 14.9697 0.999908 11.9997 0.999908C7.69969 0.999908 3.98969 3.46991 2.17969 7.06991L5.83969 9.90991C6.70969 7.30991 9.13969 5.37991 11.9997 5.37991Z" fill="#EA4335"/>
</svg>
